# xmcd CD database file
#
# Track frame offsets:
#	150
#	18233
#	31409
#	47060
#	65382
#	82419
#	99055
#	114718
#	131324
#	147024
#
# Disc length: 2194 seconds
#
# Revision: 4
# Processed by: cddbd v1.5.2PL0 Copyright (c) Steve Scherf et al.
# Submitted via: CDex 1.51
#
DISCID=7d08900a
DTITLE=AMR DIAB - El Lilady
DYEAR=2007
DGENRE=Pop-Folk
TTITLE0=Ne, Oul Aih
TTITLE1=El Lilady
TTITLE2=Toul Ma, An Shaifak
TTITLE3=Hikayat
TTITLE4=Inta El Ghaly
TTITLE5=Rohy Mertahalak
TTITLE6=Aletly Oul
TTITLE7=We Fehmt Einak
TTITLE8=Dehket
TTITLE9=Khalik Ma, Aya
EXTD=YEAR: 2007
EXTT0=
EXTT1=
EXTT2=
EXTT3=
EXTT4=
EXTT5=
EXTT6=
EXTT7=
EXTT8=
EXTT9=
PLAYORDER=
